<svg xmlns="http://www.w3.org/2000/svg" viewBox="0 0 1200 630" font-family="'JetBrains Mono','SF Mono',Menlo,monospace">
  <rect width="1200" height="630" fill="#0E0F13"/>
  <rect width="1200" height="630" fill="url(#g)"/>
  <defs>
    <radialGradient id="g" cx="18%" cy="22%" r="90%">
      <stop offset="0%" stop-color="#171A24"/>
      <stop offset="100%" stop-color="#0E0F13"/>
    </radialGradient>
  </defs>

  <!-- logo mark, scaled up -->
  <g transform="translate(96,150) scale(4.2)">
    <path d="M2 16 C 9 8.6 23 8.6 30 16 C 23 23.4 9 23.4 2 16 Z" fill="none" stroke="#8FA0E8" stroke-width="1.7" stroke-linejoin="round"/>
    <circle cx="16" cy="16" r="7.3" fill="none" stroke="#8FA0E8" stroke-width="1.2" opacity=".28"/>
    <rect x="12.1" y="12.1" width="3.4" height="3.4" rx=".6" fill="#8FA0E8"/>
    <rect x="16.5" y="12.1" width="3.4" height="3.4" rx=".6" fill="#8FA0E8"/>
    <rect x="12.1" y="16.5" width="3.4" height="3.4" rx=".6" fill="#8FA0E8"/>
    <rect x="16.5" y="16.5" width="3.4" height="3.4" rx=".6" fill="#D94F45"/>
  </g>

  <text x="232" y="228" font-size="76" font-weight="700" letter-spacing="-2" fill="#D2D4E8">win<tspan fill="#8FA0E8">sight</tspan></text>
  <text x="98" y="360" font-size="38" font-weight="600" fill="#D2D4E8">Windows CVE intelligence for patch-diffing</text>
  <text x="98" y="418" font-size="26" fill="#8A8DA8">Browse Microsoft security advisories · affected modules ·</text>
  <text x="98" y="456" font-size="26" fill="#8A8DA8">downloadable patched &amp; unpatched binaries</text>

  <!-- stat chips -->
  <g font-size="24" font-weight="600">
    <rect x="98"  y="512" width="300" height="52" rx="6" fill="#171A24" stroke="#2A2E3C"/>
    <text x="118" y="546" fill="#8FA0E8">1,600+ Windows CVEs</text>
    <rect x="418" y="512" width="360" height="52" rx="6" fill="#171A24" stroke="#2A2E3C"/>
    <text x="438" y="546" fill="#8FA0E8">1,000+ diffable in two clicks</text>
  </g>

  <text x="1102" y="586" text-anchor="end" font-size="22" fill="#5B5E74">refreshed weekly from MSRC · no affiliation with Microsoft</text>
</svg>
